<svg width="729" height="636" viewBox="0 0 729 636" fill="none" xmlns="http://www.w3.org/2000/svg">
<path d="M-123.745 802.675C-196.916 761.91 -235.976 675.989 -250.914 593.366C-265.852 510.744 -256.061 431.475 -236.172 355.266C-215.677 279.113 -184.429 205.55 -127.71 147.092C-71.6459 89.1032 9.88995 46.2192 103.186 21.4162C196.481 -3.38669 300.98 -10.6912 381.954 24.9562C462.323 60.5474 519.167 139.09 577.564 214.06C635.961 289.031 696.467 361.01 718.769 443.254C741.07 525.498 724.561 617.949 677.033 695.843C629.457 774.264 550.256 838.073 459.168 858.832C368.128 879.066 265.151 856.777 160.349 847.593C55.4978 838.936 -50.5734 843.44 -123.745 802.675Z" fill="#94C457"/>
</svg>
