<svg width="189" height="190" viewBox="0 0 189 190" fill="none" xmlns="http://www.w3.org/2000/svg">
<path d="M240.276 -91.4587C249.309 -71.5019 238.374 -32.301 252.875 -7.59263C267.375 17.1158 306.835 27.5694 304.934 36.5974C303.032 45.8631 259.768 53.9408 239.087 68.1957C218.644 82.213 220.784 102.17 213.652 129.729C206.759 157.526 190.356 192.688 175.856 189.837C161.118 186.986 148.044 146.36 129.74 125.215C111.436 104.07 88.1403 102.645 58.1886 91.241C28.2369 79.8372 -8.133 58.93 1.61319 43.4873C11.5971 28.0445 67.4594 18.3037 86.7141 -11.6315C105.969 -41.3291 88.378 -91.2211 96.698 -111.653C105.256 -131.847 139.724 -122.344 171.339 -117.355C202.717 -112.128 231.481 -111.416 240.276 -91.4587Z" fill="#94C457"/>
</svg>
